<?xml version="1.0" encoding="UTF-8" standalone="no"?>
<!DOCTYPE svg PUBLIC "-//W3C//DTD SVG 1.1//EN" "http://www.w3.org/Graphics/SVG/1.1/DTD/svg11.dtd">
<svg width="100%" height="100%" viewBox="0 0 3369 662" version="1.1" xmlns="http://www.w3.org/2000/svg" xmlns:xlink="http://www.w3.org/1999/xlink" xml:space="preserve" xmlns:serif="http://www.serif.com/" style="fill-rule:evenodd;clip-rule:evenodd;stroke-linejoin:round;stroke-miterlimit:2;">
    <g transform="matrix(1,0,0,1,-2933,-3868.24)">
        <g id="ChemostratigraPy" transform="matrix(0.374326,0,0,0.183795,2933,3868.24)">
            <rect x="0" y="0" width="9000" height="3600" style="fill:none;"/>
            <g transform="matrix(2.67147,-6.56635e-17,-6.55352e-14,5.44085,-9141.66,-5738.41)">
                <text x="3433px" y="1495.4px" style="font-family:'OctoberDL-Regular', 'October Devanagari';font-size:395.833px;fill:rgb(207,207,207);">C</text>
                <text x="3674.85px" y="1495.4px" style="font-family:'OctoberDL-Regular', 'October Devanagari';font-size:395.833px;fill:rgb(207,207,207);stroke:black;stroke-width:8.33px;">hemos<tspan x="4947.06px " y="1495.4px ">t</tspan></text>
                <text x="5098.27px" y="1495.4px" style="font-family:'OctoberDL-Regular', 'October Devanagari';font-size:395.833px;fill:rgb(207,207,207);">r</text>
                <text x="5240.38px" y="1495.4px" style="font-family:'OctoberDL-Regular', 'October Devanagari';font-size:395.833px;fill:rgb(207,207,207);stroke:black;stroke-width:8.33px;">a<tspan x="5455.71px " y="1495.4px ">t</tspan>ig</text>
                <text x="5944.96px" y="1495.4px" style="font-family:'OctoberDL-Regular', 'October Devanagari';font-size:395.833px;fill:none;">r</text>
                <text x="6087.06px" y="1495.4px" style="font-family:'OctoberDL-Regular', 'October Devanagari';font-size:395.833px;fill:rgb(207,207,207);stroke:black;stroke-width:8.33px;">a</text>
                <text x="6304.77px" y="1495.4px" style="font-family:'OctoberDL-Regular', 'October Devanagari';font-size:395.833px;fill:none;">P</text>
                <g transform="matrix(395.833,0,0,395.833,6771.06,1495.4)">
                </g>
                <text x="6556.12px" y="1495.4px" style="font-family:'OctoberDL-Regular', 'October Devanagari';font-size:395.833px;fill:rgb(207,207,207);stroke:black;stroke-width:8.33px;">y</text>
            </g>
            <g transform="matrix(0.1156,0,0,0.918329,4155,106.958)">
                <rect x="3440" y="1438" width="1599" height="217" style="fill:rgb(13,125,145);stroke:black;stroke-width:67.64px;stroke-linecap:round;stroke-miterlimit:1.5;"/>
            </g>
            <g transform="matrix(0.0877108,0,0,0.918329,4250.93,311.328)">
                <rect x="3440" y="1438" width="1599" height="217" style="fill:rgb(13,125,145);stroke:black;stroke-width:68.54px;stroke-linecap:round;stroke-miterlimit:1.5;"/>
            </g>
            <g transform="matrix(0.0594937,-9.78804e-18,6.29431e-17,-2.6337,4348,6194.83)">
                <rect x="3440" y="1438" width="1599" height="217" style="fill:rgb(13,125,145);stroke:black;stroke-width:24.32px;stroke-linecap:round;stroke-miterlimit:1.5;"/>
            </g>
            <g transform="matrix(0.196365,0,0,0.918329,3877.16,-91.1356)">
                <rect x="3440" y="1438" width="1599" height="217" style="fill:rgb(13,125,145);stroke:black;stroke-width:64.02px;stroke-linecap:round;stroke-miterlimit:1.5;"/>
            </g>
            <g transform="matrix(0.1156,0,0,0.918329,6422.6,106.958)">
                <rect x="3440" y="1438" width="1599" height="217" style="fill:rgb(13,125,145);stroke:black;stroke-width:67.64px;stroke-linecap:round;stroke-miterlimit:1.5;"/>
            </g>
            <g transform="matrix(0.0877108,0,0,0.918329,6518.54,311.328)">
                <rect x="3440" y="1438" width="1599" height="217" style="fill:rgb(13,125,145);stroke:black;stroke-width:68.54px;stroke-linecap:round;stroke-miterlimit:1.5;"/>
            </g>
            <g transform="matrix(0.0594937,-9.78804e-18,6.29431e-17,-2.6337,6615.61,6194.83)">
                <rect x="3440" y="1438" width="1599" height="217" style="fill:rgb(13,125,145);stroke:black;stroke-width:24.32px;stroke-linecap:round;stroke-miterlimit:1.5;"/>
            </g>
            <g transform="matrix(0.196365,0,0,0.918329,6144.77,-91.1356)">
                <rect x="3440" y="1438" width="1599" height="217" style="fill:rgb(13,125,145);stroke:black;stroke-width:64.02px;stroke-linecap:round;stroke-miterlimit:1.5;"/>
            </g>
            <g transform="matrix(0.327591,6.10798e-18,-4.11019e-18,1.50258,6663.88,-1048.43)">
                <rect x="3440" y="1438" width="1599" height="217" style="fill:rgb(13,125,145);stroke:black;stroke-width:39px;stroke-linecap:round;stroke-miterlimit:1.5;"/>
            </g>
            <g transform="matrix(0.327591,6.10798e-18,-4.11019e-18,1.50258,6663.88,-1048.43)">
                <rect x="3440" y="1438" width="1599" height="217" style="fill:rgb(13,125,145);stroke:black;stroke-width:39px;stroke-linecap:round;stroke-miterlimit:1.5;"/>
            </g>
            <g transform="matrix(0.284703,5.30832e-18,-4.11019e-18,1.50258,6811.42,-717.338)">
                <rect x="3440" y="1438" width="1599" height="217" style="fill:rgb(13,125,145);stroke:black;stroke-width:39.81px;stroke-linecap:round;stroke-miterlimit:1.5;"/>
            </g>
            <g transform="matrix(0.0966277,-5.80695e-19,5.89074e-18,-3.07784,7458.4,6867.57)">
                <rect x="3440" y="1438" width="1599" height="217" style="fill:rgb(13,125,145);stroke:black;stroke-width:20.79px;stroke-linecap:round;stroke-miterlimit:1.5;"/>
            </g>
            <g transform="matrix(0.284571,5.30587e-18,-4.11019e-18,1.50258,6811.87,-1379.53)">
                <rect x="3440" y="1438" width="1599" height="217" style="fill:rgb(13,125,145);stroke:black;stroke-width:39.81px;stroke-linecap:round;stroke-miterlimit:1.5;"/>
            </g>
            <g transform="matrix(0.345657,4.76198e-18,-4.79193e-18,1.29438,-1105.01,-1122.32)">
                <rect x="3440" y="1438" width="1599" height="217" style="fill:rgb(13,125,145);stroke:black;stroke-width:43.52px;stroke-linecap:round;stroke-miterlimit:1.5;"/>
            </g>
            <g transform="matrix(0.345838,4.75972e-18,-4.79444e-18,1.29377,-1105.63,291.136)">
                <rect x="3440" y="1438" width="1599" height="217" style="fill:rgb(13,125,145);stroke:black;stroke-width:43.53px;stroke-linecap:round;stroke-miterlimit:1.5;"/>
            </g>
            <g transform="matrix(0.0966277,-1.76874e-17,1.34164e-16,-5.21109,-248.351,9643.44)">
                <rect x="3440" y="1438" width="1599" height="217" style="fill:rgb(13,125,145);stroke:black;stroke-width:12.3px;stroke-linecap:round;stroke-miterlimit:1.5;"/>
            </g>
        </g>
    </g>
</svg>
